<?xml version="1.0" encoding="UTF-8"?>
<!-- Generator: Adobe Illustrator 19.1.0, SVG Export Plug-In . SVG Version: 6.00 Build 0)  -->
<svg version="1.1" id="Calque_1" xmlns="http://www.w3.org/2000/svg" xmlns:xlink="http://www.w3.org/1999/xlink" x="0px" y="0px" viewBox="0 0 300 200" style="enable-background:new 0 0 300 200;" xml:space="preserve">
<style type="text/css">
	.st0{fill:#FFFFFF;}
	.st1{fill:#250671;}
	.st2{fill:#8B6E4A;}
	.st3{font-family:'ArialMT';}
	.st4{font-size:8.182px;}
	.st5{fill:none;stroke:#8B6E4A;stroke-width:0.4819;stroke-miterlimit:10;}
</style>
<g>
	<g>
		<path class="st0" d="M268.1,147.2c-23.8,17.8-68.4,29.6-116.4,30.8l-1.7,0c-73,0-132.5-25.2-132.5-56.3c0-9.1,5-17.8,14.8-25.8    c24.3-18.7,68.2-29.2,115.7-30.4l0,0l2,0c73,0,132.5,25.2,132.5,56.3C282.5,130.7,277.7,139.2,268.1,147.2"/>
		<path class="st1" d="M288.7,118.6c-0.7-30.6-58.6-54.6-131.8-54.6c-2.6,0-5.3,0-7.9,0.1l-0.6,0l0,0C98.4,65.4,55.3,76.6,30.9,95    c-12.6,9.2-19.1,19.6-18.9,30.1c0.7,30.6,58.6,54.6,131.8,54.6c2.6,0,5.3,0,7.9-0.1l0.4,0c50-0.3,95-13.1,118.3-31.2    C282.6,139.3,289,129,288.7,118.6 M268.1,147.2c-23.8,17.8-68.4,29.6-116.4,30.8l-1.7,0c-73,0-132.5-25.2-132.5-56.3    c0-9.1,5-17.8,14.8-25.8c24.3-18.7,68.2-29.2,115.7-30.4l0,0l2,0c73,0,132.5,25.2,132.5,56.3C282.5,130.7,277.7,139.2,268.1,147.2    z"/>
		<path class="st1" d="M265.3,30.4c-3.4-2.7-10-5.2-20-5.2c-21.1,0-51.1,10.7-61.2,15.5c-7.7,3.6-12.8,7.2-16.2,10.5    c-0.6,0.5-1.2,1.1-1.7,1.6c-1.2,1.2-1.4,1.4-2.8,1.6c-0.5,0.1-1.2,0-2.1-0.1l-3.4-0.3c0.7,6.3-1.8,13.6-7,17.4    c-5.7,4.2-14.2,4.2-19.9,0c-4.2-3.1-6.6-8.4-7-13.7l-3,1c-4.9,1.7-12.1,5.5-15.3,9.9c-2.4,2.7-2.7,7.3-0.7,9.3    c2.7,2.6,7.6,4.6,11.6,5.6c5.3,1.3,11.7,1.9,18.5,1.9c2.8,0,5.6-0.1,8.5-0.3c17.7-1.4,27.7-6.2,30.7-14.6c0.3-0.9,0.6-1.9,0.9-2.9    l0.6-1.7l0,0c0.7-2,1.7-3.9,4-6.8c0.6-0.8,1.3-1.5,2-2.2c12.4-11.8,34.8-15.9,49.3-16.6c15.1-0.7,26.1-1,29.7-1    c0,0,7.1,0.5,7.1-4.5C267.8,33.4,267.2,32,265.3,30.4"/>
		<path class="st0" d="M106.6,70.7c0,0.1-0.3,0.7-0.4,0.9c-0.1,0.2-0.1,0.4-0.2,0.7c0,0.1,0,0.1-0.1,0.2c-0.1,0.2-0.1,0.5-0.1,0.7v0    c0,1,0.3,2,1,2.9c1.4,1.8,5.1,3.4,10,4.6c7.3,1.7,16.5,2.3,26.1,1.5c16.5-1.3,25.7-5.4,28.3-12.7c0.3-0.9,0.6-1.8,0.9-2.8    c0.1-0.2,0.1-0.4,0.2-0.6c0-0.1,0.1-0.3,0.2-0.4c0,0.1-0.1,0.1-0.1,0.2c0.9-2.9,2-5.1,4.8-8.5c0.7-0.8,1.4-1.7,2.3-2.5    c11.1-10.6,31.6-15.3,51-16.4c20.6-1.2,28.8-1,30.3-0.9c3,0.1,5-0.7,5.4-2.2c0.3-1-0.2-2.1-1.3-3.1c-3.5-3.7-14.8-7.8-34.9-3.8    c-37.2,7.5-53.5,18-60.6,24.8c-0.5,0.5-1.1,1-1.5,1.5c-1.4,1.4-2.2,2.2-4.5,2.4c-0.7,0.1-1.6,0-2.7-0.1    c-0.3,6.6-3.3,12.9-8.2,16.5c-2.1,1.6-4.6,2.6-7.3,3.2c15.3-1.9,20.7-6.6,22.8-10.5c-0.2,0.5-0.3,1.1-0.5,1.6    c-1.3,3.6-4.3,9.7-23.3,11.7c-17.1,1.8-30.2,0.1-34-5.1c7.6,4.2,17.1,3.8,30.3,2.8c0.1,0,0.1,0,0.1,0c-4.2,0-8.3-1.3-11.5-3.7    c-3.8-2.8-6.5-7.3-7.6-12.3C114.3,64,108.6,67.3,106.6,70.7"/>
		<path class="st2" d="M131,71.3c5.7,4.2,14.2,4.2,19.9,0c5.5-4.1,8-12.1,6.8-18.7c-1.1-5.7-5-8.8-10.8-8.3    c-1.1,0.1-2.3,0.3-3.4,0.7c-0.8,0.2-1.5,0.4-1.9,0.5c0.9-11.1,3.8-21,11.5-29.3l-3-0.2c-9.5,11.4-9.7,29.7-9.7,28.5    c0-0.6,0,1.2-0.1,1.8c0,0.4-0.1,0.9-0.2,1.2c0,0-0.1,0.1-0.1,0.1c-0.1,0.1-0.1,0.3-0.1,0.4c-0.2,0.3,0.1,0.9,0.3,1    c0.2,0.2,0.3,0.3,0.4,0.4c-0.4,0-0.9-0.1-1.3-0.3c-0.1-0.1-0.1-0.1-0.2-0.2c-0.3-0.4-0.3-1.1-0.1-1.5c0.3-0.6,0.8-1.8,0.3-1.9    c-0.4-0.1-1.2-0.7-4.1-1c-5.7-0.5-9.7,2.6-10.8,8.3C123,59.2,125.5,67.3,131,71.3 M127.9,62.7c-2.1-6.3-1.6-14.2,5.1-15.5    c0.6-0.1,0.9,0.2,0.4,0.5c-4.1,2.6-5.2,9.3-4.6,14.9C128.9,63.4,128.1,63.4,127.9,62.7z"/>
		<path class="st2" d="M239.4,30.4c16-1.7,23,3.1,22.6,6.3c7.2-1.3-0.1-10.1-19.8-8.5c-29.6,2.4-62.4,15.9-73.2,27.3    c0,0.1,0.2,0.7,0.2,0.8C177.3,48.8,202.5,34.2,239.4,30.4"/>
		<text transform="matrix(1.0524 -1.819910e-02 1.729914e-02 0.9999 155.6487 171.8705)" class="st1 st3 st4"> </text>
		<path class="st2" d="M151.8,182.1c-2.7,0.1-5.3,0.1-8,0.1c-35.7,0-69.1-5.7-94-16c-25.6-10.6-39.9-25.2-40.3-41l0-0.6    c0-8.3,3.9-16.6,11.3-24.2c0,0,0,0,0,0c-7.8,6.6-13.8,13.7-15.5,21.5c-7.2,32.5,48,60.3,123.3,62.2c15.4,0.4,30.6-1.1,44.9-2.8    c-7,0.5-14.1,0.8-21.2,0.9L151.8,182.1"/>
		<path class="st2" d="M188.2,61.2c-0.1,0-0.2,0-0.3,0c-0.4,0-1.2-0.1-2.1-0.1c-0.1,0-0.3,0-0.4,0l0,0c-2.9-0.1-6.9,0-7.2,0.2    c-0.3,0.1-0.5,0.7-0.7,1c27.8,1.8,53.4,7,73.4,15.4c25.6,10.6,39.9,25.2,40.3,41c0,0.2,0,0.4,0,0.6c0,7-2.7,13.9-7.9,20.4    c6.2-6.1,10.2-12.7,11.6-19.5C300.9,90.1,254.2,65.2,188.2,61.2"/>
	</g>
	<path class="st1" d="M87.7,128.1c-0.2-0.4-0.5-0.3-0.7,0c-1.2,1.2-2.3,2.2-3.4,2.8c-1.3,0.7-2.8,1.1-4.4,1.1c-3,0-5.3-1.2-7-3.5   c-1.7-2.3-2.6-5.7-2.6-10c0-3.9,0.7-6.9,2.2-9.2c1.5-2.3,3.4-3.4,5.9-3.4c2.3,0,4.2,0.8,5.8,2.4c0.2,0.3,0.5,0.5,0.7,0.8   c0.1,0.1,0.1,0.2,0.2,0.3c0.1,0.1,0.2,0.2,0.2,0.4c0.6,0.9,1.2,2,1.6,3.3c0.2,0.5,0.8,0.5,0.8,0c0-0.5-0.2-6.7-0.2-7.2   c0-0.5-0.5-0.5-0.7-0.3c-0.6,0.5-0.8,0.7-1.6,0.4c-0.4-0.1-0.8-0.3-1.3-0.5v0c-0.1,0-0.3-0.1-0.4-0.1c0,0,0,0-0.1,0   c-1.9-0.7-3.7-1.1-5.2-1.1c-4.1,0-7.5,1.5-10.2,4.5c-2.7,3-4.1,6.8-4.1,11.2c0,4.4,1.3,8,3.8,10.8c2.6,2.8,5.9,4.1,9.9,4.1   c4.4,0,7.9-1.9,10.5-5.6C87.5,129,87.9,128.4,87.7,128.1 M51.2,126.4l-2.6-7.7l-2.5,7.7L51.2,126.4z M58.6,134.1h-0.3H54h-2.4   c-0.4,0-0.3-0.3-0.2-0.4c0.3-0.2,0.7-0.4,1.2-0.7c0,0,0,0,0,0c0.3-0.2,0.4-0.5,0.4-0.9c0-0.3-0.1-0.8-0.3-1.5l-1-2.9h-6.2l-0.9,2.5   c-0.2,0.6-0.3,1.2-0.3,1.6c0,0.1,0,0.3,0,0.4v0c0,0.7,0.8,1.3,1,1.6c0.2,0.2,0,0.4-0.3,0.4h-0.8h-2.8h-1c-0.4,0-0.3-0.3-0.2-0.4   c0.6-0.4,1.5-0.6,2.5-2c0.4-0.6,0.7-1.4,1.1-2.5l4.9-14.3c0,0,0.1-0.3,0.4-0.2c0.3,0,1.5,0,1.7,0c0.4,0,0.4,0.3,0.4,0.3l5.2,14.9   c0,0.1,0.1,0.2,0.1,0.3c1,2.5,1.7,3.1,2.4,3.6C58.9,133.8,59,134.1,58.6,134.1 M130,124.2l-3.4-9.9l-3.2,9.9L130,124.2L130,124.2z    M139.5,134.1h-0.4h-5.5h-3.1c-0.5,0-0.4-0.4-0.2-0.5c0.4-0.3,0.9-0.5,1.5-0.9c0,0,0,0,0,0c0.4-0.3,0.6-0.7,0.6-1.2   c0-0.4-0.1-1-0.4-1.9l-1.3-3.7h-7.9l-1.1,3.2c-0.3,0.8-0.4,1.5-0.4,2c0,0.2,0,0.3,0,0.5l0,0c0,0.9,1,1.7,1.3,2   c0.2,0.2,0,0.5-0.3,0.5h-1h-3.7h-1.3c-0.5,0-0.4-0.4-0.2-0.5c0.7-0.5,1.9-0.8,3.1-2.6c0.5-0.8,0.9-1.9,1.4-3.2l6.3-18.4   c0,0,0.1-0.3,0.5-0.3h2.2c0.5,0,0.5,0.4,0.5,0.4l6.6,19.1c0,0.1,0.1,0.2,0.1,0.3c1.3,3.3,2.1,4,3.1,4.7   C139.9,133.8,140,134.1,139.5,134.1 M155.1,116c0-3.2-1.5-4.8-4.6-4.8l-1.5,0l0,10c0.4,0,0.7,0,1.1,0c1.8,0,3.1-0.4,3.8-1.2   C154.7,119.1,155.1,117.8,155.1,116 M165,134.1c0,0-0.1,0-0.2,0c0,0-5.5,0-5.9,0c-0.4,0-0.6-0.1-0.8-0.4c-0.8-1.1-1.8-3-2.9-5.5   c-0.9-2-1.6-3.3-2-3.9c-0.4-0.6-0.9-1.1-1.4-1.4c-0.5-0.3-1.4-0.4-2.8-0.4v6v0v0.9c0,3.3,1.2,3.6,2.1,4.3c0.2,0.1,0.3,0.5-0.3,0.5   H149h-4.9h-1.8c-0.5,0-0.4-0.4-0.2-0.5c0.8-0.6,1.9-0.9,2.1-3.7v-15.2c0-1.6-0.6-3.5-2.2-4.5c-0.4-0.2,0-0.5,0.4-0.5h2h7.7   c2.8,0,4.9,0.5,6.4,1.6c1.5,1.1,2.2,2.6,2.2,4.5c0,1.4-0.4,2.6-1.2,3.6c-0.8,1-1.9,1.7-3.3,2.2v0.1c0.5,0.1,1.1,0.6,1.7,1.4   c0.6,0.8,1.5,2.4,2.6,4.7c0.3,0.6,0.5,1.1,0.8,1.5l0,0v0c0.2,0.4,0.4,0.8,0.6,1.1c1.4,2.2,2.8,2.4,3.6,3   C165.5,133.8,165.5,134.1,165,134.1 M112.7,131.5c0-0.9,0-19.2,0-19.2c0-0.9,0.8-1.7,1.1-2c0.2-0.2,0-0.5-0.3-0.5H107   c-0.3,0-0.5,0.2-0.3,0.5c0.2,0.2,1.1,0.9,1.1,2.1c0,0.9,0,8.1,0,8.1H97.2l0-8.3c0-0.9,0.8-1.7,1.1-2c0.2-0.2,0-0.5-0.3-0.5h-6.4   c-0.3,0-0.5,0.2-0.3,0.5c0.2,0.2,1.1,0.9,1.1,2.1c0,0.6,0,19.2,0,19.2c0,0.9-0.8,1.7-1.1,2c-0.2,0.2,0,0.5,0.3,0.5h6.4   c0.3,0,0.5-0.2,0.3-0.5c-0.2-0.3-1.1-0.9-1.1-2.1c0-0.9,0-9.2,0-9.2h10.6c0,0,0,9.3,0,9.3c0,0.9-0.8,1.7-1.1,2   c-0.2,0.2,0,0.5,0.3,0.5l6.4,0c0.3,0,0.5-0.2,0.3-0.5C113.6,133.4,112.7,132.7,112.7,131.5 M231.6,114.8c-0.2-0.4-1.2-4.3-1.3-4.6   c-0.1-0.2-0.4-0.3-0.6-0.4h-4.1l0,0h-4.4h-8.4c-0.2,0-0.5,0.2-0.6,0.4c-0.1,0.2-1.2,4.2-1.3,4.6c-0.2,0.4,0.3,0.4,0.4,0.2   c0.5-0.5,1.5-1.4,2.5-1.9c0.9-0.5,1.8-0.8,2.8-0.8c0.5,0,1.5,0.1,2.1,0.2v19.2c0,0.9-0.8,1.7-1.1,2c-0.2,0.2,0,0.5,0.3,0.5h6.6   c0.3,0,0.5-0.2,0.3-0.5c-0.2-0.3-1.1-0.9-1.1-2.1c0-1.9,0-17.1,0-17.1l0-1.9c0.6-0.1,1.6-0.2,2.1-0.2c1.1,0,1.9,0.3,2.8,0.8   c0.9,0.5,2,1.4,2.5,1.9C231.3,115.2,231.8,115.2,231.6,114.8 M253.9,114.8c-0.2-0.4-1.2-4.3-1.3-4.6c-0.1-0.2-0.4-0.3-0.6-0.3   l-4.1,0l0,0h-4.4l-8.4,0c-0.2,0-0.5,0.2-0.6,0.3c-0.1,0.2-1.2,4.2-1.3,4.6c-0.2,0.4,0.3,0.4,0.4,0.2c0.5-0.5,1.5-1.4,2.5-1.9   c0.9-0.5,1.8-0.8,2.8-0.8c0.5,0,1.5,0.1,2.1,0.2c0,1,0,19.2,0,19.2c0,0.9-0.8,1.7-1.1,2c-0.2,0.3,0,0.5,0.3,0.5h6.6   c0.3,0,0.5-0.2,0.3-0.5c-0.2-0.3-1.1-0.9-1.1-2.1c0-1.9,0-17.1,0-17.1l0-1.9c0.6-0.1,1.6-0.2,2.1-0.2c1.1,0,1.9,0.3,2.8,0.9   c0.9,0.5,2,1.4,2.5,1.9C253.6,115.2,254.1,115.2,253.9,114.8 M203.1,130.4c-1.2,1.9-2.9,2.9-5,2.9c-2.2,0-3.8-1-5-2.9   c-1.1-2-1.7-4.7-1.7-8.2c0-3.8,0.6-6.7,1.7-8.7c1.2-2,2.8-3,5-3c2.2,0,3.9,1,5.1,3c1.2,2,1.7,4.9,1.7,8.6   C204.9,125.7,204.3,128.5,203.1,130.4 M206.8,112.8c-2.3-2.4-5.2-3.6-8.7-3.6c-3.5,0-6.4,1.2-8.7,3.6c-2.2,2.4-3.4,5.5-3.4,9.2   c0,3.7,1.1,6.8,3.4,9.2c2.3,2.4,5.1,3.6,8.7,3.6c3.5,0,6.4-1.2,8.7-3.6c2.3-2.4,3.4-5.4,3.4-9.2   C210.2,118.2,209.1,115.2,206.8,112.8 M256.2,109.9c-0.4,0-0.5,0.4-0.3,0.6c1.1,0.9,2.1,2.3,2.1,3.8v15.3c0,1.5-0.5,2.9-1.9,3.9   c-0.3,0.2-0.3,0.6,0.1,0.6c0.4,0,14.9,0,15.6,0c0.3,0,0.4-0.1,0.5-0.3c0-0.2,1.2-3.9,1.4-4.4c0.2-0.5-0.4-0.6-0.6-0.3   c-1.1,1.6-3.5,2.9-7.1,2.9c-1,0-2.4-0.2-2.9-0.4v-9.4h3.1c0.9,0,2.7,0.1,3.7,1.6c0.1,0.2,0.3,0.1,0.3-0.1c0-0.3-0.1-3.6-0.1-3.6h-7   v-8.3c0,0,1.3-0.3,2.7-0.3c1.4,0,3.6,0.3,5.8,2.1c0.3,0.2,0.7,0,0.6-0.4c-0.3-0.7-1.4-3.4-1.4-3.4L256.2,109.9z M28.1,130.6   c0,1.2-0.4,2.3-1.5,3c-0.2,0.2-0.2,0.5,0.1,0.5c0.3,0,2.9,0,3.4,0h7.8c0.2,0,0.4-0.1,0.5-0.3c0.1-0.2,1.3-3.3,1.5-3.6   c0.1-0.3-0.2-0.3-0.3-0.2c-0.4,0.4-1.1,1.2-1.9,1.5c-1,0.4-1.8,0.7-3.6,0.7c-0.4,0-1.1,0-2-0.2v-14.9c0-0.7,0.7-1.3,0.9-1.6   c0.2-0.2,0-0.4-0.3-0.4h-5.2c-0.3,0-0.4,0.2-0.2,0.4c0.2,0.2,0.9,0.7,0.9,1.7L28.1,130.6L28.1,130.6z M169.9,112.5   c0-1.3-0.9-1.9-1.1-2.1c-0.2-0.3,0-0.5,0.3-0.5h6.6c0.3,0,0.6,0.2,0.3,0.5c-0.3,0.3-1.1,1.1-1.1,2v19.2c1.2,0.2,2,0.2,2.5,0.2   c2.3,0,3.3-0.4,4.6-0.9c1-0.4,1.9-1.4,2.5-1.9c0.2-0.2,0.6-0.2,0.4,0.2c-0.2,0.4-1.8,4.3-1.9,4.6c-0.1,0.2-0.4,0.4-0.6,0.4h-10   h-4.4c-0.4,0-0.4-0.4-0.1-0.6c1.4-0.9,1.9-2.4,2-3.9C169.9,129.6,169.9,114.5,169.9,112.5"/>
	<g>
		<path class="st2" d="M56.8,152c0-2.8,0-3.2-0.2-3.3v-0.1h0.8h0.8v0.1c-0.2,0.1-0.2,0.5-0.2,3.3v1.2v2.7c0,0.1,0,0.1,0.1,0.1h2.4    c0.3,0,0.4,0,0.6,0c0.2,0,0.3-0.1,0.3-0.1h0.1c0,0.3,0,0.5,0,1h-2.3h-2.5v-0.1c0.2-0.1,0.2-0.5,0.2-3.5L56.8,152L56.8,152z"/>
		<path class="st5" d="M56.8,152c0-2.8,0-3.2-0.2-3.3v-0.1h0.8h0.8v0.1c-0.2,0.1-0.2,0.5-0.2,3.3v1.2v2.7c0,0.1,0,0.1,0.1,0.1h2.4    c0.3,0,0.4,0,0.6,0c0.2,0,0.3-0.1,0.3-0.1h0.1c0,0.3,0,0.5,0,1h-2.3h-2.5v-0.1c0.2-0.1,0.2-0.5,0.2-3.5L56.8,152L56.8,152z"/>
		<path class="st2" d="M63.8,152c0-2.8,0-3.3-0.1-3.3v-0.1H66h2.4c0,0.3,0,0.7,0,1h-0.1c-0.1-0.1-0.6-0.2-1.3-0.2h-2v2.8h2    c0.8,0,1,0,1.1-0.1h0.1v0.5v0.5h-0.1c-0.1-0.1-0.3-0.1-1.1-0.1h-2v2.8c0,0.1,0,0.1,0.1,0.1h2.4c0.5,0,0.8,0,0.9-0.1h0.1    c0,0.3,0,0.7,0,1h-2.4h-2.5v-0.1c0.2-0.1,0.2-0.5,0.2-3.5L63.8,152L63.8,152z"/>
		<path class="st5" d="M63.8,152c0-2.8,0-3.3-0.1-3.3v-0.1H66h2.4c0,0.3,0,0.7,0,1h-0.1c-0.1-0.1-0.6-0.2-1.3-0.2h-2v2.8h2    c0.8,0,1,0,1.1-0.1h0.1v0.5v0.5h-0.1c-0.1-0.1-0.3-0.1-1.1-0.1h-2v2.8c0,0.1,0,0.1,0.1,0.1h2.4c0.5,0,0.8,0,0.9-0.1h0.1    c0,0.3,0,0.7,0,1h-2.4h-2.5v-0.1c0.2-0.1,0.2-0.5,0.2-3.5L63.8,152L63.8,152z"/>
		<path class="st2" d="M75.2,152.7c0-2.6,2.4-4.2,5.5-4.2c0.5,0,0.9,0,1.3,0.1c0.4,0,0.7,0.1,1,0.2c0,0.5,0,0.7-0.1,1.1h-0.1    c-0.1-0.1-0.3-0.2-0.6-0.3c-0.4-0.1-0.9-0.2-1.6-0.2c-2.5,0-4.3,1.3-4.3,3.4c0,2,1.7,3.4,4,3.4c0.5,0,1,0,1.4-0.1    c0-0.2,0-0.4,0-0.5c0-1.6,0-2.2-0.2-2.3v-0.1h0.7h0.8v0.1c-0.1,0.1-0.1,0.3-0.1,2.1v0.4c0,0.4,0,0.8,0,1.1    c-0.8,0.2-1.6,0.3-2.6,0.3C77.4,157,75.2,155.4,75.2,152.7L75.2,152.7L75.2,152.7z"/>
		<path class="st5" d="M75.2,152.7c0-2.6,2.4-4.2,5.5-4.2c0.5,0,0.9,0,1.3,0.1c0.4,0,0.7,0.1,1,0.2c0,0.5,0,0.7-0.1,1.1h-0.1    c-0.1-0.1-0.3-0.2-0.6-0.3c-0.4-0.1-0.9-0.2-1.6-0.2c-2.5,0-4.3,1.3-4.3,3.4c0,2,1.7,3.4,4,3.4c0.5,0,1,0,1.4-0.1    c0-0.2,0-0.4,0-0.5c0-1.6,0-2.2-0.2-2.3v-0.1h0.7h0.8v0.1c-0.1,0.1-0.1,0.3-0.1,2.1v0.4c0,0.4,0,0.8,0,1.1    c-0.8,0.2-1.6,0.3-2.6,0.3C77.4,157,75.2,155.4,75.2,152.7L75.2,152.7L75.2,152.7z"/>
		<path class="st2" d="M90.4,148.4l-1.2-0.7l-1.2,0.7l-0.3-0.3l1.5-1.2l1.5,1.2L90.4,148.4z M90.6,153.7L90.6,153.7    c-1.1-2.4-1.3-2.8-1.4-3.2h0c-0.1,0.4-0.3,0.7-1.5,3.1l0,0H90.6z M87.3,154.5c-0.9,1.8-1.1,2.2-1,2.3v0.1h-0.7h-0.8v-0.1    c0.1-0.1,0.4-0.5,1.9-3.6l2.4-4.7h0.2l2.3,4.8c1.5,3.1,1.7,3.5,1.8,3.6v0.1h-0.8h-0.8v-0.1c0.2-0.1-0.1-0.5-0.9-2.3H87.3z"/>
		<path class="st5" d="M90.4,148.4l-1.2-0.7l-1.2,0.7l-0.3-0.3l1.5-1.2l1.5,1.2L90.4,148.4z M90.6,153.7L90.6,153.7    c-1.1-2.4-1.3-2.8-1.4-3.2h0c-0.1,0.4-0.3,0.7-1.5,3.1l0,0H90.6z M87.3,154.5c-0.9,1.8-1.1,2.2-1,2.3v0.1h-0.7h-0.8v-0.1    c0.1-0.1,0.4-0.5,1.9-3.6l2.4-4.7h0.2l2.3,4.8c1.5,3.1,1.7,3.5,1.8,3.6v0.1h-0.8h-0.8v-0.1c0.2-0.1-0.1-0.5-0.9-2.3H87.3z"/>
		<path class="st2" d="M97.5,149.5h-2.1c-0.5,0-0.7,0-0.8,0.2h-0.1v-1h3.1h1h3.1v1h-0.1c-0.1-0.1-0.4-0.2-0.9-0.2h-2v3.8    c0,3.1,0,3.5,0.2,3.5v0.1h-0.8h-0.8v-0.1c0.2-0.1,0.2-0.5,0.2-3.5V149.5z"/>
		<path class="st5" d="M97.5,149.5h-2.1c-0.5,0-0.7,0-0.8,0.2h-0.1v-1h3.1h1h3.1v1h-0.1c-0.1-0.1-0.4-0.2-0.9-0.2h-2v3.8    c0,3.1,0,3.5,0.2,3.5v0.1h-0.8h-0.8v-0.1c0.2-0.1,0.2-0.5,0.2-3.5V149.5z"/>
		<path class="st2" d="M103.8,152c0-2.8,0-3.3-0.1-3.3v-0.1h2.3h2.4c0,0.3,0,0.7,0,1h-0.1c-0.1-0.1-0.6-0.2-1.3-0.2h-2v2.8h1.9    c0.8,0,1,0,1.1-0.1h0v0.5v0.5h0c-0.1-0.1-0.3-0.1-1.1-0.1h-2v2.8c0,0.1,0,0.1,0.1,0.1h2.4c0.5,0,0.9,0,1-0.1h0.1c0,0.3,0,0.7,0,1    h-2.4h-2.5v-0.1c0.2-0.1,0.2-0.5,0.2-3.5L103.8,152L103.8,152z"/>
		<path class="st5" d="M103.8,152c0-2.8,0-3.3-0.1-3.3v-0.1h2.3h2.4c0,0.3,0,0.7,0,1h-0.1c-0.1-0.1-0.6-0.2-1.3-0.2h-2v2.8h1.9    c0.8,0,1,0,1.1-0.1h0v0.5v0.5h0c-0.1-0.1-0.3-0.1-1.1-0.1h-2v2.8c0,0.1,0,0.1,0.1,0.1h2.4c0.5,0,0.9,0,1-0.1h0.1c0,0.3,0,0.7,0,1    h-2.4h-2.5v-0.1c0.2-0.1,0.2-0.5,0.2-3.5L103.8,152L103.8,152z"/>
		<path class="st2" d="M115.8,153.7L115.8,153.7c-1.1-2.4-1.3-2.8-1.4-3.2h0c-0.1,0.4-0.3,0.7-1.5,3.1l0,0H115.8z M112.5,154.5    c-0.9,1.8-1.1,2.2-0.9,2.3v0.1h-0.7H110v-0.1c0.1-0.1,0.4-0.5,1.9-3.6l2.4-4.7h0.2l2.3,4.8c1.5,3.1,1.7,3.5,1.8,3.6v0.1h-0.8H117    v-0.1c0.1-0.1-0.1-0.5-0.9-2.3H112.5z"/>
		<path class="st5" d="M115.8,153.7L115.8,153.7c-1.1-2.4-1.3-2.8-1.4-3.2h0c-0.1,0.4-0.3,0.7-1.5,3.1l0,0H115.8z M112.5,154.5    c-0.9,1.8-1.1,2.2-0.9,2.3v0.1h-0.7H110v-0.1c0.1-0.1,0.4-0.5,1.9-3.6l2.4-4.7h0.2l2.3,4.8c1.5,3.1,1.7,3.5,1.8,3.6v0.1h-0.8H117    v-0.1c0.1-0.1-0.1-0.5-0.9-2.3H112.5z"/>
		<path class="st2" d="M120.1,152c0-2.9,0-3.3-0.2-3.3v-0.1h0.7h0.8v0.1c-0.2,0.1-0.2,0.5-0.2,3.3v1.3c0,0.9,0.2,1.5,0.5,1.9    c0.4,0.5,1.2,0.8,2,0.8c0.9,0,1.6-0.2,2.1-0.7c0.4-0.5,0.6-1.1,0.6-2.1V152c0-2.8,0-3.3-0.2-3.3v-0.1h0.7h0.7v0.1    c-0.2,0.1-0.2,0.5-0.2,3.3v1.3c0,1.2-0.3,2-0.8,2.6c-0.6,0.7-1.7,1.1-3,1.1c-1.3,0-2.5-0.4-3.1-1.2c-0.5-0.6-0.7-1.2-0.7-2.4    L120.1,152L120.1,152z"/>
		<path class="st5" d="M120.1,152c0-2.9,0-3.3-0.2-3.3v-0.1h0.7h0.8v0.1c-0.2,0.1-0.2,0.5-0.2,3.3v1.3c0,0.9,0.2,1.5,0.5,1.9    c0.4,0.5,1.2,0.8,2,0.8c0.9,0,1.6-0.2,2.1-0.7c0.4-0.5,0.6-1.1,0.6-2.1V152c0-2.8,0-3.3-0.2-3.3v-0.1h0.7h0.7v0.1    c-0.2,0.1-0.2,0.5-0.2,3.3v1.3c0,1.2-0.3,2-0.8,2.6c-0.6,0.7-1.7,1.1-3,1.1c-1.3,0-2.5-0.4-3.1-1.2c-0.5-0.6-0.7-1.2-0.7-2.4    L120.1,152L120.1,152z"/>
		<path class="st2" d="M130.5,155.7c0.4,0,0.8,0.3,0.8,0.6c0,0.3-0.3,0.6-0.8,0.6c-0.4,0-0.8-0.3-0.8-0.6    C129.7,156,130.1,155.7,130.5,155.7L130.5,155.7z"/>
		<path class="st5" d="M130.5,155.7c0.4,0,0.8,0.3,0.8,0.6c0,0.3-0.3,0.6-0.8,0.6c-0.4,0-0.8-0.3-0.8-0.6    C129.7,156,130.1,155.7,130.5,155.7L130.5,155.7z"/>
		<path class="st2" d="M134.1,155.7c0.4,0,0.8,0.3,0.8,0.6c0,0.3-0.3,0.6-0.8,0.6c-0.4,0-0.7-0.3-0.7-0.6    C133.3,156,133.7,155.7,134.1,155.7L134.1,155.7z"/>
		<path class="st5" d="M134.1,155.7c0.4,0,0.8,0.3,0.8,0.6c0,0.3-0.3,0.6-0.8,0.6c-0.4,0-0.7-0.3-0.7-0.6    C133.3,156,133.7,155.7,134.1,155.7L134.1,155.7z"/>
		<path class="st2" d="M137.6,155.7c0.4,0,0.8,0.3,0.8,0.6c0,0.3-0.3,0.6-0.8,0.6c-0.4,0-0.8-0.3-0.8-0.6    C136.9,156,137.2,155.7,137.6,155.7L137.6,155.7z"/>
		<path class="st5" d="M137.6,155.7c0.4,0,0.8,0.3,0.8,0.6c0,0.3-0.3,0.6-0.8,0.6c-0.4,0-0.8-0.3-0.8-0.6    C136.9,156,137.2,155.7,137.6,155.7L137.6,155.7z"/>
		<path class="st2" d="M145,154.8c0,1.1-1,2.2-3.1,2.2c-0.6,0-1.2-0.1-1.6-0.2c0-0.4,0-0.6,0.1-1.1h0.1c0.1,0.1,0.3,0.2,0.4,0.3    c0.3,0.1,0.6,0.1,1,0.1c1,0,1.8-0.5,1.8-1.3c0-0.5-0.2-0.9-0.8-1.3c-0.4-0.3-0.8-0.5-1.2-0.8c-0.8-0.6-1.2-1.1-1.2-1.9    c0-1.1,1.1-2.2,2.9-2.2c0.5,0,0.9,0.1,1.2,0.1c0,0.4,0,0.6,0,1h-0.1c-0.1-0.1-0.3-0.2-0.4-0.2c-0.2,0-0.4-0.1-0.6-0.1    c-1,0-1.8,0.5-1.8,1.2c0,0.4,0.2,0.8,0.6,1.1c0.4,0.3,0.8,0.6,1.3,0.9C144.4,153.3,145,153.9,145,154.8L145,154.8L145,154.8z"/>
		<path class="st5" d="M145,154.8c0,1.1-1,2.2-3.1,2.2c-0.6,0-1.2-0.1-1.6-0.2c0-0.4,0-0.6,0.1-1.1h0.1c0.1,0.1,0.3,0.2,0.4,0.3    c0.3,0.1,0.6,0.1,1,0.1c1,0,1.8-0.5,1.8-1.3c0-0.5-0.2-0.9-0.8-1.3c-0.4-0.3-0.8-0.5-1.2-0.8c-0.8-0.6-1.2-1.1-1.2-1.9    c0-1.1,1-2.2,2.9-2.2c0.5,0,0.9,0.1,1.2,0.1c0,0.4,0,0.6,0,1h-0.1c-0.1-0.1-0.3-0.2-0.4-0.2c-0.2,0-0.4-0.1-0.6-0.1    c-1,0-1.8,0.5-1.8,1.2c0,0.4,0.2,0.8,0.6,1.1c0.4,0.3,0.8,0.6,1.3,0.9C144.4,153.3,145,153.9,145,154.8L145,154.8L145,154.8z"/>
		<path class="st2" d="M155.9,152.7c0-1.9-1.6-3.3-3.8-3.3c-2.2,0-3.8,1.5-3.8,3.3c0,1.8,1.6,3.3,3.8,3.3    C154.3,156.1,155.9,154.6,155.9,152.7L155.9,152.7z M157.1,152.7c0,2.4-2.1,4.3-5.1,4.3c-2.8,0-5-1.9-5-4.2c0-2.4,2.2-4.3,5.2-4.3    C155.1,148.5,157.1,150.3,157.1,152.7L157.1,152.7L157.1,152.7z"/>
		<path class="st5" d="M155.9,152.7c0-1.9-1.6-3.3-3.8-3.3c-2.2,0-3.8,1.5-3.8,3.3c0,1.8,1.6,3.3,3.8,3.3    C154.3,156.1,155.9,154.6,155.9,152.7L155.9,152.7z M157.1,152.7c0,2.4-2.1,4.3-5.1,4.3c-2.8,0-5-1.9-5-4.2c0-2.4,2.2-4.3,5.2-4.3    C155.1,148.5,157.1,150.3,157.1,152.7L157.1,152.7L157.1,152.7z"/>
		<path class="st2" d="M159.5,152c0-2.9,0-3.3-0.2-3.3v-0.1h0.8h0.8v0.1c-0.2,0.1-0.2,0.5-0.2,3.3v1.3c0,0.9,0.2,1.5,0.5,1.9    c0.4,0.5,1.2,0.8,2,0.8c0.9,0,1.6-0.2,2.1-0.7c0.4-0.5,0.6-1.1,0.6-2.1V152c0-2.8,0-3.3-0.2-3.3v-0.1h0.7h0.8v0.1    c-0.2,0.1-0.2,0.5-0.2,3.3v1.3c0,1.2-0.3,2-0.8,2.6c-0.6,0.7-1.7,1.1-3,1.1c-1.4,0-2.5-0.4-3.1-1.2c-0.5-0.6-0.7-1.2-0.7-2.4V152    L159.5,152z"/>
		<path class="st5" d="M159.5,152c0-2.9,0-3.3-0.2-3.3v-0.1h0.8h0.8v0.1c-0.2,0.1-0.2,0.5-0.2,3.3v1.3c0,0.9,0.2,1.5,0.5,1.9    c0.4,0.5,1.2,0.8,2,0.8c0.9,0,1.6-0.2,2.1-0.7c0.4-0.5,0.6-1.1,0.6-2.1V152c0-2.8,0-3.3-0.2-3.3v-0.1h0.7h0.8v0.1    c-0.2,0.1-0.2,0.5-0.2,3.3v1.3c0,1.2-0.3,2-0.8,2.6c-0.6,0.7-1.7,1.1-3,1.1c-1.4,0-2.5-0.4-3.1-1.2c-0.5-0.6-0.7-1.2-0.7-2.4V152    L159.5,152z"/>
		<path class="st2" d="M174.1,154.8c0,1.1-1,2.2-3.1,2.2c-0.5,0-1.2-0.1-1.6-0.2c0-0.4,0-0.6,0.1-1.1h0.1c0.1,0.1,0.2,0.2,0.4,0.3    c0.2,0.1,0.6,0.1,1,0.1c1,0,1.8-0.5,1.8-1.3c0-0.5-0.2-0.9-0.8-1.3c-0.4-0.3-0.8-0.5-1.2-0.8c-0.8-0.6-1.2-1.1-1.2-1.9    c0-1.1,1-2.1,2.9-2.1c0.5,0,0.9,0.1,1.2,0.1c0,0.4,0,0.6,0,1h-0.1c-0.1-0.1-0.3-0.2-0.4-0.2c-0.2,0-0.4-0.1-0.6-0.1    c-1,0-1.8,0.5-1.8,1.2c0,0.4,0.2,0.8,0.6,1.1c0.4,0.3,0.8,0.6,1.3,0.9C173.6,153.3,174.1,153.9,174.1,154.8L174.1,154.8    L174.1,154.8z"/>
		<path class="st5" d="M174.1,154.8c0,1.1-1,2.2-3.1,2.2c-0.5,0-1.2-0.1-1.6-0.2c0-0.4,0-0.6,0.1-1.1h0.1c0.1,0.1,0.2,0.2,0.4,0.3    c0.2,0.1,0.6,0.1,1,0.1c1,0,1.8-0.5,1.8-1.3c0-0.5-0.2-0.9-0.8-1.3c-0.4-0.3-0.8-0.5-1.2-0.8c-0.8-0.6-1.2-1.1-1.2-1.9    c0-1.1,1-2.1,2.9-2.1c0.5,0,0.9,0.1,1.2,0.1c0,0.4,0,0.6,0,1h-0.1c-0.1-0.1-0.3-0.2-0.4-0.2c-0.2,0-0.4-0.1-0.6-0.1    c-1,0-1.8,0.5-1.8,1.2c0,0.4,0.2,0.8,0.6,1.1c0.4,0.3,0.8,0.6,1.3,0.9C173.6,153.3,174.1,153.9,174.1,154.8L174.1,154.8    L174.1,154.8z"/>
		<path class="st2" d="M181.3,152c0-2.8,0-3.2-0.2-3.3v-0.1h0.8h0.8v0.1c-0.2,0.1-0.2,0.5-0.2,3.3v1.2v2.7c0,0.1,0,0.1,0.1,0.1h2.4    c0.3,0,0.4,0,0.6,0c0.2,0,0.3-0.1,0.3-0.1h0.1c0,0.3,0,0.5,0,1h-2.3h-2.5v-0.1c0.2-0.1,0.2-0.5,0.2-3.5L181.3,152L181.3,152z"/>
		<path class="st5" d="M181.3,152c0-2.8,0-3.2-0.2-3.3v-0.1h0.8h0.8v0.1c-0.2,0.1-0.2,0.5-0.2,3.3v1.2v2.7c0,0.1,0,0.1,0.1,0.1h2.4    c0.3,0,0.4,0,0.6,0c0.2,0,0.3-0.1,0.3-0.1h0.1c0,0.3,0,0.5,0,1h-2.3h-2.5v-0.1c0.2-0.1,0.2-0.5,0.2-3.5L181.3,152L181.3,152z"/>
		<path class="st2" d="M193.1,153.7L193.1,153.7c-1.1-2.4-1.3-2.8-1.4-3.2h0c-0.1,0.4-0.3,0.7-1.5,3.1l0,0H193.1z M189.8,154.5    c-0.9,1.8-1.1,2.2-1,2.3v0.1h-0.7h-0.8v-0.1c0.1-0.1,0.4-0.5,1.9-3.6l2.4-4.7h0.2l2.3,4.8c1.5,3.1,1.7,3.5,1.8,3.6v0.1h-0.7h-0.8    v-0.1c0.1-0.1-0.1-0.5-0.9-2.3L189.8,154.5L189.8,154.5z"/>
		<path class="st5" d="M193.1,153.7L193.1,153.7c-1.1-2.4-1.3-2.8-1.4-3.2h0c-0.1,0.4-0.3,0.7-1.5,3.1l0,0H193.1z M189.8,154.5    c-0.9,1.8-1.1,2.2-1,2.3v0.1h-0.7h-0.8v-0.1c0.1-0.1,0.4-0.5,1.9-3.6l2.4-4.7h0.2l2.3,4.8c1.5,3.1,1.7,3.5,1.8,3.6v0.1h-0.7h-0.8    v-0.1c0.1-0.1-0.1-0.5-0.9-2.3L189.8,154.5L189.8,154.5z"/>
		<path class="st2" d="M201.7,152.7c0-2.6,2.4-4.2,5.5-4.2c0.5,0,0.8,0,1.1,0c0.3,0,0.7,0.1,0.9,0.1c0,0.4,0,0.7,0,1.1H209    c-0.1-0.1-0.3-0.2-0.5-0.2c-0.3-0.1-0.8-0.1-1.3-0.1c-2.6,0-4.2,1.3-4.2,3.3c0,2,1.7,3.4,4.1,3.4c0.5,0,1,0,1.3-0.1    c0.2-0.1,0.4-0.1,0.6-0.3h0.1c0,0.3,0,0.8,0,1c-0.2,0.1-0.5,0.1-0.8,0.2c-0.4,0.1-0.8,0.1-1.3,0.1    C204.1,157,201.7,155.4,201.7,152.7L201.7,152.7L201.7,152.7z"/>
		<path class="st5" d="M201.7,152.7c0-2.6,2.4-4.2,5.5-4.2c0.5,0,0.8,0,1.1,0c0.3,0,0.7,0.1,0.9,0.1c0,0.4,0,0.7,0,1.1H209    c-0.1-0.1-0.3-0.2-0.5-0.2c-0.3-0.1-0.8-0.1-1.3-0.1c-2.6,0-4.2,1.3-4.2,3.3c0,2,1.7,3.4,4.1,3.4c0.5,0,1,0,1.3-0.1    c0.2-0.1,0.4-0.1,0.6-0.3h0.1c0,0.3,0,0.8,0,1c-0.2,0.1-0.5,0.1-0.8,0.2c-0.4,0.1-0.8,0.1-1.3,0.1    C204.1,157,201.7,155.4,201.7,152.7L201.7,152.7L201.7,152.7z"/>
		<path class="st2" d="M211.8,152c0-2.8,0-3.3-0.1-3.3v-0.1h2.3h2.4c0,0.3,0,0.7,0,1h-0.1c-0.1-0.1-0.6-0.2-1.3-0.2h-2v2.8h1.9    c0.8,0,1,0,1.1-0.1h0.1v0.5v0.5H216c-0.1-0.1-0.4-0.1-1.1-0.1h-2v2.8c0,0.1,0,0.1,0.1,0.1h2.4c0.5,0,0.9,0,0.9-0.1h0.1    c0,0.3,0,0.7,0,1h-2.4h-2.5v-0.1c0.1-0.1,0.1-0.5,0.1-3.5L211.8,152L211.8,152z"/>
		<path class="st2" d="M238.1,152c0-2.8,0-3.3-0.1-3.3v-0.1h2.3h2.4c0,0.3,0,0.7,0,1h-0.1c-0.1-0.1-0.6-0.2-1.3-0.2h-2v2.8h2    c0.7,0,1,0,1.1-0.1h0.1v0.5v0.5h-0.1c-0.1-0.1-0.3-0.1-1.1-0.1h-2v2.8c0,0.1,0,0.1,0.1,0.1h2.4c0.5,0,0.9,0,0.9-0.1h0.1    c0,0.3,0,0.7,0,1h-2.4H238v-0.1c0.1-0.1,0.1-0.5,0.1-3.5L238.1,152L238.1,152z"/>
		<path class="st5" d="M211.8,152c0-2.8,0-3.3-0.1-3.3v-0.1h2.3h2.4c0,0.3,0,0.7,0,1h-0.1c-0.1-0.1-0.6-0.2-1.3-0.2h-2v2.8h1.9    c0.8,0,1,0,1.1-0.1h0.1v0.5v0.5H216c-0.1-0.1-0.4-0.1-1.1-0.1h-2v2.8c0,0.1,0,0.1,0.1,0.1h2.4c0.5,0,0.9,0,0.9-0.1h0.1    c0,0.3,0,0.7,0,1h-2.4h-2.5v-0.1c0.1-0.1,0.1-0.5,0.1-3.5L211.8,152L211.8,152z"/>
		<path class="st2" d="M222.9,150.9c0-0.9-0.8-1.5-2.1-1.5c-0.2,0-0.5,0-0.6,0v3.1c0.1,0,0.3,0,0.4,0c0.4,0,0.8-0.1,1.1-0.2    C222.3,152.2,222.9,151.8,222.9,150.9L222.9,150.9L222.9,150.9z M219.1,152c0-2.9,0-3.3-0.2-3.3v-0.1c0.2,0,0.4,0,0.7,0    c0.3,0,0.7,0,1,0c0.6,0,1.3,0.1,1.8,0.2c0.6,0.2,1.7,0.8,1.7,2.1c0,1.1-0.8,1.7-1.3,2c-0.3,0.1-0.6,0.3-0.9,0.3v0    c0.1,0.2,0.3,0.4,2.5,2.8c0.3,0.3,0.7,0.8,0.9,0.8v0.1h-0.7h-0.5c-0.1,0-0.2,0-0.3,0c-0.8-0.9-1.7-1.9-3-3.4h-0.5v0.3    c0,2.6,0,3,0.2,3.1v0.1h-0.7H219v-0.1c0.2-0.1,0.2-0.5,0.2-3.5L219.1,152L219.1,152z"/>
		<path class="st5" d="M222.9,150.9c0-0.9-0.8-1.5-2.1-1.5c-0.2,0-0.5,0-0.6,0v3.1c0.1,0,0.3,0,0.4,0c0.4,0,0.8-0.1,1.1-0.2    C222.3,152.2,222.9,151.8,222.9,150.9L222.9,150.9L222.9,150.9z M219.1,152c0-2.9,0-3.3-0.2-3.3v-0.1c0.2,0,0.4,0,0.7,0    c0.3,0,0.7,0,1,0c0.6,0,1.3,0.1,1.8,0.2c0.6,0.2,1.7,0.8,1.7,2.1c0,1.1-0.8,1.7-1.3,2c-0.3,0.1-0.6,0.3-0.9,0.3v0    c0.1,0.2,0.3,0.4,2.5,2.8c0.3,0.3,0.7,0.8,0.9,0.8v0.1h-0.7h-0.5c-0.1,0-0.2,0-0.3,0c-0.8-0.9-1.7-1.9-3-3.4h-0.5v0.3    c0,2.6,0,3,0.2,3.1v0.1h-0.7H219v-0.1c0.2-0.1,0.2-0.5,0.2-3.5L219.1,152L219.1,152z"/>
		<path class="st2" d="M228.4,153.3c0,3,0,3.5,0.2,3.5v0h-0.8H227v-0.1c0.2-0.1,0.2-0.5,0.2-3.5V152c0-2.9,0-3.3-0.2-3.3v-0.1h0.8    h0.8v0.1c-0.2,0.1-0.2,0.5-0.2,3.3L228.4,153.3L228.4,153.3z"/>
		<path class="st5" d="M228.4,153.3c0,3,0,3.5,0.2,3.5v0h-0.8H227v-0.1c0.2-0.1,0.2-0.5,0.2-3.5V152c0-2.9,0-3.3-0.2-3.3v-0.1h0.8    h0.8v0.1c-0.2,0.1-0.2,0.5-0.2,3.3L228.4,153.3L228.4,153.3z"/>
		<path class="st2" d="M235.5,154.8c0,1.1-1,2.2-3.1,2.2c-0.6,0-1.2-0.1-1.6-0.2c0-0.4,0-0.6,0.1-1.1h0.1c0.1,0.1,0.2,0.2,0.4,0.3    c0.3,0.1,0.6,0.1,1,0.1c1,0,1.8-0.5,1.8-1.3c0-0.5-0.2-0.9-0.8-1.3c-0.4-0.3-0.8-0.5-1.2-0.8c-0.8-0.6-1.2-1.1-1.2-1.9    c0-1.1,1.1-2.2,2.9-2.2c0.5,0,0.9,0.1,1.2,0.1c0,0.4,0,0.6,0,1h-0.1c-0.1-0.1-0.3-0.2-0.4-0.2c-0.2,0-0.4-0.1-0.6-0.1    c-1,0-1.8,0.5-1.8,1.2c0,0.4,0.2,0.8,0.6,1.1c0.4,0.3,0.8,0.6,1.3,0.9C235,153.3,235.5,153.9,235.5,154.8L235.5,154.8L235.5,154.8    z"/>
		<path class="st5" d="M235.5,154.8c0,1.1-1,2.2-3.1,2.2c-0.6,0-1.2-0.1-1.6-0.2c0-0.4,0-0.6,0.1-1.1h0.1c0.1,0.1,0.2,0.2,0.4,0.3    c0.3,0.1,0.6,0.1,1,0.1c1,0,1.8-0.5,1.8-1.3c0-0.5-0.2-0.9-0.8-1.3c-0.4-0.3-0.8-0.5-1.2-0.8c-0.8-0.6-1.2-1.1-1.2-1.9    c0-1.1,1.1-2.2,2.9-2.2c0.5,0,0.9,0.1,1.2,0.1c0,0.4,0,0.6,0,1h-0.1c-0.1-0.1-0.3-0.2-0.4-0.2c-0.2,0-0.4-0.1-0.6-0.1    c-1,0-1.8,0.5-1.8,1.2c0,0.4,0.2,0.8,0.6,1.1c0.4,0.3,0.8,0.6,1.3,0.9C235,153.3,235.5,153.9,235.5,154.8L235.5,154.8L235.5,154.8    z"/>
		<path class="st5" d="M238.2,152c0-2.8,0-3.3-0.1-3.3v-0.1h2.3h2.4c0,0.3,0,0.7,0,1h-0.1c-0.1-0.1-0.6-0.2-1.3-0.2h-2v2.8h2    c0.7,0,1,0,1.1-0.1h0.1v0.5v0.5h-0.1c-0.1-0.1-0.3-0.1-1.1-0.1h-2v2.8c0,0.1,0,0.1,0.1,0.1h2.4c0.5,0,0.9,0,0.9-0.1h0.1    c0,0.3,0,0.7,0,1h-2.4H238v-0.1c0.2-0.1,0.2-0.5,0.2-3.5L238.2,152L238.2,152z"/>
	</g>
	<g>
		<path class="st2" d="M105.6,95.6c0-0.5-0.3-0.9-0.8-1c-0.2-0.1-0.6-0.1-1-0.1c-0.1,0-0.3,0-0.4,0v2.4c0.1,0,0.3,0,0.4,0    c0.3,0,0.6,0,0.9-0.1c0.2-0.1,0.5-0.2,0.6-0.4C105.5,96.1,105.6,95.9,105.6,95.6L105.6,95.6L105.6,95.6z M102.5,96.2    c0-2.1,0-2.3-0.1-2.4v0c0.2,0,0.4,0,0.7,0c0.3,0,0.6,0,0.8,0c0.4,0,0.9,0.1,1.3,0.2c0.7,0.2,1.3,0.8,1.3,1.6    c0,0.3-0.1,0.6-0.3,0.9c-0.1,0.2-0.4,0.5-0.6,0.6c-0.3,0.2-0.6,0.3-1,0.3c-0.4,0.1-0.8,0.1-1.2,0.1v0.2c0,1.7,0,1.9,0.1,2v0h-0.6    h-0.5v0c0.1-0.1,0.1-0.3,0.1-2.5L102.5,96.2L102.5,96.2z"/>
		<path class="st5" d="M105.6,95.6c0-0.5-0.3-0.9-0.8-1c-0.2-0.1-0.6-0.1-1-0.1c-0.1,0-0.3,0-0.4,0v2.4c0.1,0,0.3,0,0.4,0    c0.3,0,0.6,0,0.9-0.1c0.2-0.1,0.5-0.2,0.6-0.4C105.5,96.1,105.6,95.9,105.6,95.6L105.6,95.6L105.6,95.6z M102.5,96.2    c0-2.1,0-2.3-0.1-2.4v0c0.2,0,0.4,0,0.7,0c0.3,0,0.6,0,0.8,0c0.4,0,0.9,0.1,1.3,0.2c0.7,0.2,1.3,0.8,1.3,1.6    c0,0.3-0.1,0.6-0.3,0.9c-0.1,0.2-0.4,0.5-0.6,0.6c-0.3,0.2-0.6,0.3-1,0.3c-0.4,0.1-0.8,0.1-1.2,0.1v0.2c0,1.7,0,1.9,0.1,2v0h-0.6    h-0.5v0c0.1-0.1,0.1-0.3,0.1-2.5L102.5,96.2L102.5,96.2z"/>
		<path class="st2" d="M111.3,93.6l-0.9-0.5l-0.9,0.5l-0.2-0.2l1.2-0.8l1.1,0.9L111.3,93.6z M111.4,97.5L111.4,97.5    c-0.8-1.7-1-2-1.1-2.3h0c-0.1,0.3-0.2,0.5-1.1,2.2l0,0H111.4z M108.9,98c-0.7,1.3-0.8,1.6-0.7,1.6v0h-0.6h-0.6v0    c0.1,0,0.3-0.3,1.5-2.6l1.8-3.4h0.1l1.7,3.4c1.1,2.2,1.3,2.5,1.4,2.6v0H113h-0.6v0c0.1,0,0-0.3-0.7-1.6L108.9,98L108.9,98z"/>
		<path class="st5" d="M111.3,93.6l-0.9-0.5l-0.9,0.5l-0.2-0.2l1.2-0.8l1.1,0.9L111.3,93.6z M111.4,97.5L111.4,97.5    c-0.8-1.7-1-2-1.1-2.3h0c-0.1,0.3-0.2,0.5-1.1,2.2l0,0H111.4z M108.9,98c-0.7,1.3-0.8,1.6-0.7,1.6v0h-0.6h-0.6v0    c0.1,0,0.3-0.3,1.5-2.6l1.8-3.4h0.1l1.7,3.4c1.1,2.2,1.3,2.5,1.4,2.6v0H113h-0.6v0c0.1,0,0-0.3-0.7-1.6L108.9,98L108.9,98z"/>
		<path class="st2" d="M116.2,94.4h-1.6c-0.4,0-0.5,0-0.6,0.1h-0.1v-0.7h2.3h0.8h2.4v0.7h-0.1c-0.1-0.1-0.3-0.1-0.7-0.1h-1.5v2.7    c0,2.2,0,2.5,0.1,2.6v0l-0.6,0h-0.6v0c0.1,0,0.1-0.3,0.1-2.5L116.2,94.4L116.2,94.4z"/>
		<path class="st5" d="M116.2,94.4h-1.6c-0.4,0-0.5,0-0.6,0.1h-0.1v-0.7h2.3h0.8h2.4v0.7h-0.1c-0.1-0.1-0.3-0.1-0.7-0.1h-1.5v2.7    c0,2.2,0,2.5,0.1,2.6v0l-0.6,0h-0.6v0c0.1,0,0.1-0.3,0.1-2.5L116.2,94.4L116.2,94.4z"/>
		<path class="st2" d="M122.2,97.1c0,2.2,0,2.5,0.1,2.6v0h-0.6h-0.6v0c0.1-0.1,0.1-0.3,0.1-2.5v-0.9c0-2.1,0-2.3-0.1-2.4v-0.1h0.6    h0.6v0c-0.1,0.1-0.1,0.3-0.1,2.4L122.2,97.1L122.2,97.1z"/>
		<path class="st5" d="M122.2,97.1c0,2.2,0,2.5,0.1,2.6v0h-0.6h-0.6v0c0.1-0.1,0.1-0.3,0.1-2.5v-0.9c0-2.1,0-2.3-0.1-2.4v-0.1h0.6    h0.6v0c-0.1,0.1-0.1,0.3-0.1,2.4L122.2,97.1L122.2,97.1z"/>
		<path class="st2" d="M128.1,98.2c0,0.8-0.8,1.6-2.3,1.6c-0.4,0-0.9-0.1-1.2-0.2c0-0.3,0-0.5,0-0.8h0c0.1,0.1,0.2,0.1,0.3,0.2    c0.2,0.1,0.5,0.1,0.8,0.1c0.7,0,1.4-0.3,1.4-0.9c0-0.4-0.2-0.6-0.6-0.9c-0.3-0.2-0.6-0.4-0.9-0.6c-0.6-0.4-0.9-0.8-0.9-1.4    c0-0.8,0.8-1.6,2.2-1.6c0.4,0,0.7,0,0.9,0.1c0,0.2,0,0.4,0,0.7h0c-0.1-0.1-0.2-0.1-0.3-0.2c-0.1,0-0.3-0.1-0.5-0.1    c-0.8,0-1.3,0.3-1.3,0.9c0,0.3,0.2,0.6,0.4,0.8c0.3,0.2,0.6,0.4,1,0.7C127.7,97.1,128.1,97.5,128.1,98.2L128.1,98.2L128.1,98.2z"/>
		<path class="st5" d="M128.1,98.2c0,0.8-0.8,1.6-2.3,1.6c-0.4,0-0.9-0.1-1.2-0.2c0-0.3,0-0.5,0-0.8h0c0.1,0.1,0.2,0.1,0.3,0.2    c0.2,0.1,0.5,0.1,0.8,0.1c0.7,0,1.4-0.3,1.4-0.9c0-0.4-0.2-0.6-0.6-0.9c-0.3-0.2-0.6-0.4-0.9-0.6c-0.6-0.4-0.9-0.8-0.9-1.4    c0-0.8,0.8-1.6,2.2-1.6c0.4,0,0.7,0,0.9,0.1c0,0.2,0,0.4,0,0.7h0c-0.1-0.1-0.2-0.1-0.3-0.2c-0.1,0-0.3-0.1-0.5-0.1    c-0.8,0-1.3,0.3-1.3,0.9c0,0.3,0.2,0.6,0.4,0.8c0.3,0.2,0.6,0.4,1,0.7C127.7,97.1,128.1,97.5,128.1,98.2L128.1,98.2L128.1,98.2z"/>
		<path class="st2" d="M133.6,98.2c0,0.8-0.8,1.6-2.3,1.6c-0.4,0-0.9-0.1-1.2-0.2c0-0.3,0-0.5,0-0.8h0c0.1,0.1,0.2,0.1,0.3,0.2    c0.2,0.1,0.5,0.1,0.8,0.1c0.7,0,1.4-0.3,1.4-0.9c0-0.4-0.2-0.6-0.6-0.9c-0.3-0.2-0.6-0.4-0.9-0.6c-0.6-0.4-0.9-0.8-0.9-1.4    c0-0.8,0.8-1.6,2.2-1.6c0.4,0,0.7,0,0.9,0.1c0,0.2,0,0.4,0,0.7h-0.1c-0.1-0.1-0.2-0.1-0.3-0.2c-0.1,0-0.3-0.1-0.5-0.1    c-0.8,0-1.3,0.3-1.3,0.9c0,0.3,0.2,0.6,0.4,0.8c0.3,0.2,0.6,0.4,1,0.7C133.1,97.1,133.6,97.5,133.6,98.2L133.6,98.2L133.6,98.2z"/>
		<path class="st5" d="M133.6,98.2c0,0.8-0.8,1.6-2.3,1.6c-0.4,0-0.9-0.1-1.2-0.2c0-0.3,0-0.5,0-0.8h0c0.1,0.1,0.2,0.1,0.3,0.2    c0.2,0.1,0.5,0.1,0.8,0.1c0.7,0,1.4-0.3,1.4-0.9c0-0.4-0.2-0.6-0.6-0.9c-0.3-0.2-0.6-0.4-0.9-0.6c-0.6-0.4-0.9-0.8-0.9-1.4    c0-0.8,0.8-1.6,2.2-1.6c0.4,0,0.7,0,0.9,0.1c0,0.2,0,0.4,0,0.7h-0.1c-0.1-0.1-0.2-0.1-0.3-0.2c-0.1,0-0.3-0.1-0.5-0.1    c-0.8,0-1.3,0.3-1.3,0.9c0,0.3,0.2,0.6,0.4,0.8c0.3,0.2,0.6,0.4,1,0.7C133.1,97.1,133.6,97.5,133.6,98.2L133.6,98.2L133.6,98.2z"/>
		<path class="st2" d="M136.7,97.1c0,2.2,0,2.5,0.1,2.6v0h-0.6h-0.6v0c0.1-0.1,0.1-0.3,0.1-2.5v-0.9c0-2.1,0-2.3-0.1-2.4v-0.1h0.6    h0.6v0c-0.1,0.1-0.1,0.3-0.1,2.4V97.1z"/>
		<path class="st5" d="M136.7,97.1c0,2.2,0,2.5,0.1,2.6v0h-0.6h-0.6v0c0.1-0.1,0.1-0.3,0.1-2.5v-0.9c0-2.1,0-2.3-0.1-2.4v-0.1h0.6    h0.6v0c-0.1,0.1-0.1,0.3-0.1,2.4V97.1z"/>
		<path class="st2" d="M139.6,96.2c0-2.1,0-2.4-0.1-2.4v0h1.8h1.8c0,0.2,0,0.5,0,0.7h0c-0.1-0.1-0.4-0.1-1-0.1h-1.5v2h1.5    c0.6,0,0.8,0,0.8-0.1h0v0.4v0.4h0c-0.1-0.1-0.3-0.1-0.8-0.1h-1.5v2c0,0.1,0,0.1,0.1,0.1h1.8c0.4,0,0.7,0,0.7-0.1h0    c0,0.2,0,0.5,0,0.7h-1.8h-1.9v0c0.1,0,0.1-0.4,0.1-2.6L139.6,96.2L139.6,96.2z"/>
		<path class="st5" d="M139.6,96.2c0-2.1,0-2.4-0.1-2.4v0h1.8h1.8c0,0.2,0,0.5,0,0.7h0c-0.1-0.1-0.4-0.1-1-0.1h-1.5v2h1.5    c0.6,0,0.8,0,0.8-0.1h0v0.4v0.4h0c-0.1-0.1-0.3-0.1-0.8-0.1h-1.5v2c0,0.1,0,0.1,0.1,0.1h1.8c0.4,0,0.7,0,0.7-0.1h0    c0,0.2,0,0.5,0,0.7h-1.8h-1.9v0c0.1,0,0.1-0.4,0.1-2.6L139.6,96.2L139.6,96.2z"/>
		<path class="st2" d="M148.3,95.4c0-0.7-0.6-1.1-1.5-1.1c-0.2,0-0.4,0-0.4,0v2.2c0.1,0,0.2,0,0.3,0c0.3,0,0.6-0.1,0.9-0.2    C147.9,96.3,148.3,96,148.3,95.4L148.3,95.4z M145.4,96.2c0-2.1,0-2.4-0.1-2.4v0c0.2,0,0.3,0,0.5,0c0.2,0,0.6,0,0.7,0    c0.5,0,0.9,0,1.4,0.2c0.5,0.1,1.3,0.5,1.3,1.5c0,0.8-0.6,1.2-1,1.4c-0.2,0.1-0.4,0.2-0.6,0.3v0c0.1,0.1,0.2,0.3,1.9,2    c0.2,0.2,0.6,0.5,0.7,0.6v0h-0.6h-0.4c-0.1,0-0.2,0-0.2,0c-0.6-0.6-1.3-1.4-2.3-2.5h-0.4v0.2c0,1.9,0,2.2,0.1,2.2v0h-0.5h-0.6v0    c0.1,0,0.1-0.4,0.1-2.6L145.4,96.2L145.4,96.2z"/>
		<path class="st5" d="M148.3,95.4c0-0.7-0.6-1.1-1.5-1.1c-0.2,0-0.4,0-0.4,0v2.2c0.1,0,0.2,0,0.3,0c0.3,0,0.6-0.1,0.9-0.2    C147.9,96.3,148.3,96,148.3,95.4L148.3,95.4z M145.4,96.2c0-2.1,0-2.4-0.1-2.4v0c0.2,0,0.3,0,0.5,0c0.2,0,0.6,0,0.7,0    c0.5,0,0.9,0,1.4,0.2c0.5,0.1,1.3,0.5,1.3,1.5c0,0.8-0.6,1.2-1,1.4c-0.2,0.1-0.4,0.2-0.6,0.3v0c0.1,0.1,0.2,0.3,1.9,2    c0.2,0.2,0.6,0.5,0.7,0.6v0h-0.6h-0.4c-0.1,0-0.2,0-0.2,0c-0.6-0.6-1.3-1.4-2.3-2.5h-0.4v0.2c0,1.9,0,2.2,0.1,2.2v0h-0.5h-0.6v0    c0.1,0,0.1-0.4,0.1-2.6L145.4,96.2L145.4,96.2z"/>
		<path class="st2" d="M154.6,96.7c0-1.9,1.8-3,4.1-3c0.4,0,0.7,0,1,0c0.3,0,0.5,0.1,0.8,0.1c0,0.3,0,0.5,0,0.8h-0.1    c-0.1-0.1-0.2-0.1-0.4-0.2c-0.3-0.1-0.7-0.1-1.2-0.1c-1.9,0-3.2,0.9-3.2,2.4c0,1.4,1.3,2.4,3,2.4c0.4,0,0.7,0,1-0.1    c0-0.1,0-0.3,0-0.4c0-1.2,0-1.6-0.1-1.6v0h0.6h0.6v0c-0.1,0.1-0.1,0.2-0.1,1.5v0.3c0,0.3,0,0.6,0,0.8c-0.6,0.2-1.2,0.2-2,0.2    C156.3,99.8,154.6,98.6,154.6,96.7L154.6,96.7L154.6,96.7z"/>
		<path class="st5" d="M154.6,96.7c0-1.9,1.8-3,4.1-3c0.4,0,0.7,0,1,0c0.3,0,0.5,0.1,0.8,0.1c0,0.3,0,0.5,0,0.8h-0.1    c-0.1-0.1-0.2-0.1-0.4-0.2c-0.3-0.1-0.7-0.1-1.2-0.1c-1.9,0-3.2,0.9-3.2,2.4c0,1.4,1.3,2.4,3,2.4c0.4,0,0.7,0,1-0.1    c0-0.1,0-0.3,0-0.4c0-1.2,0-1.6-0.1-1.6v0h0.6h0.6v0c-0.1,0.1-0.1,0.2-0.1,1.5v0.3c0,0.3,0,0.6,0,0.8c-0.6,0.2-1.2,0.2-2,0.2    C156.3,99.8,154.6,98.6,154.6,96.7L154.6,96.7L154.6,96.7z"/>
		<path class="st2" d="M163,96.2c0-2.1,0-2.3-0.1-2.4v-0.1h0.6h0.6v0.1c-0.1,0.1-0.1,0.3-0.1,2.4v0.9V99c0,0,0,0.1,0.1,0.1h1.8    c0.2,0,0.3,0,0.5,0c0.1,0,0.2,0,0.2-0.1h0.1c0,0.2,0,0.4,0,0.7h-1.8h-1.9v-0.1c0.1-0.1,0.1-0.4,0.1-2.5V96.2z"/>
		<path class="st5" d="M163,96.2c0-2.1,0-2.3-0.1-2.4v-0.1h0.6h0.6v0.1c-0.1,0.1-0.1,0.3-0.1,2.4v0.9V99c0,0,0,0.1,0.1,0.1h1.8    c0.2,0,0.3,0,0.5,0c0.1,0,0.2,0,0.2-0.1h0.1c0,0.2,0,0.4,0,0.7h-1.8h-1.9v-0.1c0.1-0.1,0.1-0.4,0.1-2.5V96.2z"/>
		<path class="st2" d="M172.2,97.5L172.2,97.5c-0.8-1.7-1-2-1.1-2.3h0c-0.1,0.3-0.2,0.5-1.1,2.2l0,0H172.2z M169.7,98    c-0.7,1.3-0.8,1.6-0.7,1.6v0h-0.6h-0.6v0c0.1,0,0.3-0.4,1.5-2.6l1.8-3.4h0.1l1.7,3.4c1.1,2.2,1.3,2.5,1.4,2.6v0h-0.6h-0.6v0    c0.1,0,0-0.4-0.7-1.6L169.7,98L169.7,98z"/>
		<path class="st5" d="M172.2,97.5L172.2,97.5c-0.8-1.7-1-2-1.1-2.3h0c-0.1,0.3-0.2,0.5-1.1,2.2l0,0H172.2z M169.7,98    c-0.7,1.3-0.8,1.6-0.7,1.6v0h-0.6h-0.6v0c0.1,0,0.3-0.4,1.5-2.6l1.8-3.4h0.1l1.7,3.4c1.1,2.2,1.3,2.5,1.4,2.6v0h-0.6h-0.6v0    c0.1,0,0-0.4-0.7-1.6L169.7,98L169.7,98z"/>
		<path class="st2" d="M175.5,96.7c0-1.9,1.8-3,4.1-3c0.3,0,0.6,0,0.8,0c0.2,0,0.5,0.1,0.7,0.1c0,0.2,0,0.5,0,0.8h-0.1    c-0.1-0.1-0.2-0.1-0.4-0.2c-0.2-0.1-0.6-0.1-0.9-0.1c-2,0-3.2,0.9-3.2,2.4c0,1.4,1.3,2.4,3.1,2.4c0.4,0,0.7,0,1-0.1    c0.2,0,0.3-0.1,0.4-0.2h0c0,0.2,0,0.6,0,0.7c-0.2,0-0.4,0.1-0.6,0.1c-0.3,0-0.6,0.1-0.9,0.1C177.3,99.8,175.5,98.7,175.5,96.7    L175.5,96.7z"/>
		<path class="st5" d="M175.5,96.7c0-1.9,1.8-3,4.1-3c0.3,0,0.6,0,0.8,0c0.2,0,0.5,0.1,0.7,0.1c0,0.2,0,0.5,0,0.8h-0.1    c-0.1-0.1-0.2-0.1-0.4-0.2c-0.2-0.1-0.6-0.1-0.9-0.1c-2,0-3.2,0.9-3.2,2.4c0,1.4,1.3,2.4,3.1,2.4c0.4,0,0.7,0,1-0.1    c0.2,0,0.3-0.1,0.4-0.2h0c0,0.2,0,0.6,0,0.7c-0.2,0-0.4,0.1-0.6,0.1c-0.3,0-0.6,0.1-0.9,0.1C177.3,99.8,175.5,98.7,175.5,96.7    L175.5,96.7z"/>
		<path class="st2" d="M184.3,97.1c0,2.2,0,2.5,0.1,2.6v0h-0.6h-0.6v0c0.1-0.1,0.1-0.3,0.1-2.5v-0.9c0-2.1,0-2.3-0.1-2.4v-0.1h0.6    h0.6v0c-0.1,0.1-0.1,0.3-0.1,2.4L184.3,97.1L184.3,97.1z"/>
		<path class="st5" d="M184.3,97.1c0,2.2,0,2.5,0.1,2.6v0h-0.6h-0.6v0c0.1-0.1,0.1-0.3,0.1-2.5v-0.9c0-2.1,0-2.3-0.1-2.4v-0.1h0.6    h0.6v0c-0.1,0.1-0.1,0.3-0.1,2.4L184.3,97.1L184.3,97.1z"/>
		<path class="st2" d="M187,96.2c0-2.1,0-2.4-0.1-2.4v0h1.7h1.8c0,0.2,0,0.5,0,0.7h-0.1c-0.1-0.1-0.4-0.1-1-0.1h-1.5v2h1.5    c0.6,0,0.8,0,0.8-0.1h0v0.4v0.4h0c-0.1-0.1-0.2-0.1-0.8-0.1h-1.5v2c0,0.1,0,0.1,0.1,0.1h1.8c0.4,0,0.7,0,0.7-0.1h0    c0,0.2,0,0.5,0,0.7h-1.8h-1.9v0c0.1,0,0.1-0.3,0.1-2.6L187,96.2L187,96.2z"/>
		<path class="st5" d="M187,96.2c0-2.1,0-2.4-0.1-2.4v0h1.7h1.8c0,0.2,0,0.5,0,0.7h-0.1c-0.1-0.1-0.4-0.1-1-0.1h-1.5v2h1.5    c0.6,0,0.8,0,0.8-0.1h0v0.4v0.4h0c-0.1-0.1-0.2-0.1-0.8-0.1h-1.5v2c0,0.1,0,0.1,0.1,0.1h1.8c0.4,0,0.7,0,0.7-0.1h0    c0,0.2,0,0.5,0,0.7h-1.8h-1.9v0c0.1,0,0.1-0.3,0.1-2.6L187,96.2L187,96.2z"/>
		<path class="st2" d="M195.7,95.4c0-0.7-0.6-1.1-1.6-1.1c-0.2,0-0.4,0-0.4,0v2.2c0.1,0,0.2,0,0.3,0c0.3,0,0.6,0,0.9-0.2    C195.3,96.3,195.7,96,195.7,95.4L195.7,95.4L195.7,95.4z M192.9,96.2c0-2.1,0-2.4-0.1-2.4v0c0.2,0,0.3,0,0.5,0c0.2,0,0.6,0,0.7,0    c0.5,0,1,0,1.4,0.2c0.5,0.1,1.3,0.5,1.3,1.5c0,0.8-0.6,1.2-1,1.4c-0.2,0.1-0.4,0.2-0.6,0.3v0c0.1,0.1,0.2,0.3,1.9,2    c0.2,0.2,0.6,0.5,0.7,0.6v0h-0.6h-0.4c-0.1,0-0.2,0-0.2,0c-0.6-0.6-1.3-1.4-2.3-2.5h-0.4v0.2c0,1.9,0,2.2,0.1,2.2v0h-0.5h-0.6v0    c0.1,0,0.1-0.3,0.1-2.6L192.9,96.2L192.9,96.2z"/>
		<path class="st5" d="M195.7,95.4c0-0.7-0.6-1.1-1.6-1.1c-0.2,0-0.4,0-0.4,0v2.2c0.1,0,0.2,0,0.3,0c0.3,0,0.6,0,0.9-0.2    C195.3,96.3,195.7,96,195.7,95.4L195.7,95.4L195.7,95.4z M192.9,96.2c0-2.1,0-2.4-0.1-2.4v0c0.2,0,0.3,0,0.5,0c0.2,0,0.6,0,0.7,0    c0.5,0,1,0,1.4,0.2c0.5,0.1,1.3,0.5,1.3,1.5c0,0.8-0.6,1.2-1,1.4c-0.2,0.1-0.4,0.2-0.6,0.3v0c0.1,0.1,0.2,0.3,1.9,2    c0.2,0.2,0.6,0.5,0.7,0.6v0h-0.6h-0.4c-0.1,0-0.2,0-0.2,0c-0.6-0.6-1.3-1.4-2.3-2.5h-0.4v0.2c0,1.9,0,2.2,0.1,2.2v0h-0.5h-0.6v0    c0.1,0,0.1-0.3,0.1-2.6L192.9,96.2L192.9,96.2z"/>
	</g>
	<path class="st1" d="M119.4,167.1c0.1-0.7-0.2-1.3-0.8-1.8c-0.4-0.3-1-0.5-1.7-0.5c-0.2,0-0.5,0-0.7,0l-0.6,4.2c0,0,0,0,0,0   c0.2,0,0.4,0.1,0.6,0.1c0.7,0.1,1.4,0,1.9-0.3C118.8,168.4,119.2,167.9,119.4,167.1L119.4,167.1z M120.2,167.2   c-0.1,1-0.7,1.7-1.6,2.1c-0.7,0.4-1.6,0.5-2.6,0.4c-0.3,0-0.6-0.1-0.9-0.1c-0.2,0-0.4-0.1-0.6-0.1l0,0c0.1,0,0.2-0.3,0.4-2.3   l0.1-0.8c0.3-1.9,0.3-2.1,0.2-2.2l0,0c0.2,0,0.4,0,0.7,0c0.3,0,0.6,0,0.9,0.1c0.9,0.1,1.6,0.3,2.2,0.7   C119.9,165.4,120.3,166.3,120.2,167.2L120.2,167.2z"/>
	<path class="st1" d="M123.4,167.1c0.2-1.9,0.2-2.2,0.1-2.2v0l1.6,0.1l1.7,0.1c0,0.2,0,0.4-0.1,0.7l0,0c0-0.1-0.4-0.1-0.9-0.2   l-1.4-0.1l-0.2,1.8l1.3,0.1c0.5,0,0.7,0,0.8,0l0,0l0,0.3l0,0.3l0,0c-0.1-0.1-0.2-0.1-0.7-0.1l-1.4-0.1l-0.2,1.8   c0,0.1,0,0.1,0.1,0.1l1.7,0.1c0.4,0,0.6,0,0.7,0l0,0c0,0.2,0,0.4-0.1,0.7l-1.6-0.1l-1.7-0.1l0,0c0.1,0,0.1-0.3,0.3-2.3L123.4,167.1   z"/>
	<path class="st1" d="M132.7,167c0-0.4-0.2-0.8-0.7-1c-0.2-0.1-0.6-0.2-0.9-0.2c-0.1,0-0.3,0-0.4,0l-0.2,2.2c0.1,0,0.2,0,0.3,0   c0.3,0,0.6,0,0.8-0.1c0.2-0.1,0.5-0.2,0.6-0.3C132.6,167.6,132.7,167.4,132.7,167L132.7,167L132.7,167z M129.8,167.5   c0.2-1.9,0.2-2.1,0.1-2.2v0c0.2,0,0.4,0,0.6,0c0.3,0,0.6,0,0.8,0c0.4,0,0.9,0.1,1.2,0.2c0.7,0.3,1.1,0.8,1.1,1.5   c0,0.3-0.1,0.6-0.3,0.8c-0.2,0.2-0.4,0.4-0.6,0.5c-0.3,0.1-0.6,0.2-0.9,0.3c-0.4,0.1-0.8,0-1.1,0l0,0.2c-0.1,1.5-0.1,1.8,0,1.8v0   l-0.5,0l-0.5,0v0c0.1-0.1,0.1-0.3,0.3-2.3L129.8,167.5z"/>
	<path class="st1" d="M136.5,167.8c0.1-1.9,0.1-2.2,0-2.2v0l0.5,0l0.5,0v0c-0.1,0-0.1,0.3-0.2,2.2l0,0.9c0,0.6,0.1,1,0.3,1.3   c0.3,0.4,0.8,0.6,1.4,0.6c0.6,0,1.1-0.1,1.5-0.4c0.3-0.3,0.5-0.7,0.5-1.3l0-0.8c0.1-1.9,0.1-2.2,0-2.2v0l0.5,0l0.5,0l0,0   c-0.1,0-0.1,0.3-0.2,2.2l0,0.8c0,0.8-0.2,1.3-0.7,1.7c-0.4,0.4-1.2,0.7-2.1,0.7c-0.9,0-1.7-0.3-2.1-0.9c-0.3-0.4-0.4-0.8-0.4-1.6   L136.5,167.8z"/>
	<path class="st1" d="M146.1,168.9c0,2,0,2.3,0.1,2.3v0l-0.5,0l-0.5,0v0c0.1-0.1,0.1-0.3,0.2-2.3l0-0.8c0-1.9,0-2.1-0.1-2.2v0l0.5,0   l0.5,0l0,0c-0.1,0-0.1,0.3-0.2,2.2L146.1,168.9z"/>
	<path class="st1" d="M152.5,169.9c0,0.7-0.7,1.4-2.1,1.4c-0.4,0-0.8-0.1-1.1-0.1c0-0.3,0-0.4,0-0.7h0c0.1,0.1,0.2,0.1,0.3,0.2   c0.2,0.1,0.4,0.1,0.7,0.1c0.7,0,1.2-0.3,1.2-0.9c0-0.3-0.2-0.6-0.6-0.9c-0.3-0.2-0.5-0.4-0.8-0.6c-0.5-0.4-0.8-0.7-0.8-1.3   c0-0.7,0.7-1.4,2-1.4c0.3,0,0.7,0,0.9,0.1c0,0.2,0,0.4,0,0.7h0c-0.1-0.1-0.2-0.1-0.3-0.1c-0.1,0-0.3,0-0.4,0   c-0.7,0-1.2,0.3-1.2,0.8c0,0.3,0.1,0.5,0.4,0.7c0.3,0.2,0.5,0.4,0.9,0.6C152.2,168.9,152.5,169.3,152.5,169.9L152.5,169.9   L152.5,169.9z"/>
	<path class="st1" d="M162,168.8c0.1,2,0.1,2.2,0.2,2.3v0l-0.6,0l-0.6,0v0c0.2-0.1,0.2-0.3,0.1-2.3l-0.1-2.1c0-0.2,0-0.2-0.1-0.2   c-0.2,0.1-0.9,0.4-1.2,0.5l-0.2-0.3c0.4-0.2,1.5-0.7,1.9-0.9l0.3,0l0.1,2.1L162,168.8z"/>
	<path class="st1" d="M167.6,166c-0.9,0-1.5,0.6-1.5,1.3c0,0.7,0.7,1.2,1.6,1.2c0.4,0,0.8-0.2,1.1-0.4c0.3-0.2,0.4-0.5,0.4-0.9   C169.2,166.4,168.5,166,167.6,166L167.6,166L167.6,166z M170.1,167.1c0,0.4-0.1,0.7-0.3,1.1c-0.2,0.4-0.4,0.7-0.8,1.2   c-0.4,0.5-0.8,1-1.1,1.4l-1,0c0.4-0.5,0.8-1,1.2-1.5c0.2-0.3,0.4-0.5,0.6-0.8l0,0c-0.3,0.2-0.7,0.3-1.1,0.3   c-1.3,0.1-2.2-0.6-2.3-1.6c0-0.5,0.2-1,0.6-1.3c0.4-0.4,1.1-0.6,1.8-0.6C169,165.4,170,166.1,170.1,167.1L170.1,167.1L170.1,167.1z   "/>
	<path class="st1" d="M174.9,165.6c-0.9,0.1-1.5,0.7-1.4,1.3c0.1,0.7,0.8,1.2,1.7,1.1c0.4,0,0.8-0.2,1.1-0.4   c0.2-0.2,0.4-0.6,0.3-0.9C176.5,166,175.8,165.6,174.9,165.6L174.9,165.6z M177.4,166.7c0,0.4-0.1,0.7-0.3,1.1   c-0.2,0.4-0.4,0.7-0.8,1.2c-0.4,0.5-0.7,1-1.1,1.5l-1,0.1c0.4-0.5,0.8-1,1.2-1.5c0.2-0.3,0.3-0.5,0.6-0.8l0,0   c-0.3,0.2-0.7,0.3-1.1,0.3c-1.3,0.1-2.2-0.6-2.3-1.5c0-0.5,0.1-1,0.5-1.3c0.4-0.4,1-0.6,1.8-0.7C176.4,165,177.3,165.7,177.4,166.7   L177.4,166.7L177.4,166.7z"/>
	<path class="st1" d="M182.5,169.5c0.8-0.1,1.5-0.6,1.4-1.4c-0.1-0.7-0.7-1.1-1.6-1.1c-0.3,0-0.5,0.1-0.7,0.2   c-0.2,0.1-0.4,0.2-0.6,0.4c-0.2,0.2-0.2,0.5-0.2,0.8C180.9,169.1,181.6,169.6,182.5,169.5L182.5,169.5L182.5,169.5z M184.7,168   c0.1,0.5-0.1,1-0.5,1.3c-0.4,0.4-1,0.6-1.7,0.7c-1.4,0.1-2.4-0.6-2.6-1.6c0-0.3,0-0.7,0.2-1c0.2-0.4,0.4-0.8,0.7-1.3   c0.4-0.6,0.7-1.1,1.1-1.6l0.9-0.1c-0.4,0.5-0.8,1-1.1,1.5c-0.1,0.2-0.4,0.6-0.6,0.9l0,0c0.3-0.2,0.7-0.3,1.1-0.4   C183.6,166.4,184.6,167.1,184.7,168L184.7,168z"/>
</g>
</svg>